<svg width="59" height="59" viewBox="0 0 59 59" fill="none" xmlns="http://www.w3.org/2000/svg">
<path d="M49.166 7.375H9.83268C7.12114 7.375 4.91602 9.58012 4.91602 12.2917V46.7083C4.91602 49.4199 7.12114 51.625 9.83268 51.625H49.166C51.8776 51.625 54.0827 49.4199 54.0827 46.7083V12.2917C54.0827 9.58012 51.8776 7.375 49.166 7.375ZM49.1685 22.125C49.166 22.125 49.166 22.125 49.1685 22.125H48.0253L41.469 12.2917H49.166L49.1685 22.125ZM23.442 22.125L16.8856 12.2917H23.2675L29.8238 22.125H23.442ZM35.7337 22.125L29.1773 12.2917H35.5591L42.1155 22.125H35.7337ZM9.83268 12.2917H10.9758L17.5322 22.125H9.83268V12.2917ZM9.83268 46.7083V27.0417H49.166L49.1709 46.7083H9.83268Z" fill="#63C471"/>
<path d="M24.584 44.25L38.1048 36.875L24.584 29.5V44.25Z" fill="#63C471"/>
</svg>
