<svg width="23" height="23" viewBox="0 0 23 23" fill="none" xmlns="http://www.w3.org/2000/svg">
<path d="M11.0117 7.54688C10.2299 7.54688 9.46557 7.77872 8.81548 8.2131C8.16539 8.64747 7.65871 9.26487 7.35951 9.98721C7.06031 10.7095 6.98202 11.5044 7.13455 12.2712C7.28709 13.038 7.66358 13.7424 8.21644 14.2953C8.76929 14.8481 9.47367 15.2246 10.2405 15.3772C11.0073 15.5297 11.8022 15.4514 12.5245 15.1522C13.2469 14.853 13.8642 14.3463 14.2986 13.6962C14.733 13.0462 14.9648 12.2819 14.9648 11.5C14.9637 10.4519 14.5468 9.44713 13.8057 8.70603C13.0646 7.96493 12.0598 7.54806 11.0117 7.54688ZM11.0117 14.0156C10.5142 14.0156 10.0278 13.8681 9.61411 13.5917C9.20042 13.3152 8.87799 12.9224 8.68759 12.4627C8.49718 12.003 8.44737 11.4972 8.54443 11.0092C8.6415 10.5212 8.88109 10.073 9.23291 9.72119C9.58472 9.36937 10.033 9.12978 10.5209 9.03271C11.0089 8.93565 11.5147 8.98546 11.9744 9.17587C12.4341 9.36627 12.827 9.6887 13.1034 10.1024C13.3798 10.5161 13.5273 11.0025 13.5273 11.5C13.5266 12.167 13.2613 12.8064 12.7897 13.278C12.3181 13.7496 11.6787 14.0149 11.0117 14.0156Z" fill="#15C615"/>
<path d="M20.8752 14.4792L19.4481 13.3043C19.7011 12.1148 19.7011 10.8853 19.4481 9.69567L20.8752 8.52083C21.0398 8.38597 21.151 8.19691 21.189 7.98752C21.2269 7.77813 21.189 7.56208 21.0821 7.37806L19.6171 4.84074C19.5112 4.65612 19.343 4.51526 19.1427 4.4434C18.9424 4.37153 18.723 4.37337 18.5239 4.44857L16.7916 5.09756C15.8893 4.28226 14.8247 3.66697 13.6678 3.29206L13.3638 1.46953C13.3294 1.25949 13.2213 1.06857 13.0589 0.930995C12.8965 0.793417 12.6905 0.718174 12.4776 0.718753H9.54773C9.3349 0.718182 9.12882 0.793421 8.96642 0.930989C8.80403 1.06856 8.69593 1.25946 8.66151 1.46949L8.35775 3.29206C7.20083 3.66696 6.13626 4.28225 5.23388 5.09756L3.50147 4.44848C3.30237 4.37333 3.08302 4.37152 2.88271 4.44339C2.68241 4.51526 2.51424 4.65611 2.40834 4.8407L0.943391 7.3782C0.836549 7.56223 0.798713 7.77828 0.836659 7.98767C0.874605 8.19705 0.985853 8.38609 1.15048 8.52092L2.57751 9.69567C2.32451 10.8853 2.32451 12.1148 2.57751 13.3043L1.15035 14.4792C0.985745 14.614 0.874526 14.8031 0.836606 15.0125C0.798686 15.2219 0.83654 15.4379 0.943391 15.6219L2.40838 18.1593C2.5143 18.3439 2.68249 18.4847 2.88282 18.5566C3.08316 18.6285 3.30254 18.6266 3.50165 18.5514L5.23392 17.9025C6.1363 18.7178 7.20087 19.333 8.35779 19.708L8.66155 21.5305C8.69597 21.7405 8.80405 21.9314 8.96644 22.069C9.12883 22.2066 9.3349 22.2818 9.54773 22.2813H12.4776C12.6905 22.2818 12.8965 22.2066 13.0589 22.069C13.2213 21.9315 13.3294 21.7406 13.3638 21.5305L13.6676 19.708C14.8246 19.333 15.8891 18.7178 16.7915 17.9025L18.5239 18.5515C18.723 18.6267 18.9423 18.6285 19.1426 18.5566C19.3429 18.4847 19.5111 18.3439 19.617 18.1593L21.0819 15.6218C21.1887 15.4378 21.2266 15.2218 21.1888 15.0125C21.1509 14.8031 21.0398 14.6141 20.8752 14.4792ZM18.6006 17.0451L16.4394 16.2354L16.1122 16.5649C15.2118 17.4724 14.0856 18.1233 12.8497 18.4504L12.4005 18.5688L12.0211 20.8438H10.0046L9.62535 18.5688L9.17613 18.4504C7.94028 18.1233 6.81407 17.4724 5.91368 16.5649L5.58643 16.2354L3.42492 17.0451L2.41683 15.2987L4.19704 13.8332L4.07575 13.3852C3.74219 12.1505 3.74219 10.8495 4.07575 9.61486L4.19704 9.1669L2.41683 7.70137L3.42514 5.95489L5.58629 6.76457L5.91355 6.43511C6.81394 5.52758 7.94015 4.87669 9.176 4.5496L9.62522 4.43119L10.0044 2.15625H12.0211L12.4004 4.43119L12.8496 4.5496C14.0854 4.87669 15.2116 5.52758 16.112 6.43511L16.4393 6.76457L18.6004 5.95489L19.6088 7.70132L17.8286 9.1669L17.9499 9.61486C18.2834 10.8495 18.2834 12.1505 17.9499 13.3852L17.8286 13.8332L19.6088 15.2986L18.6006 17.0451Z" fill="#348A40"/>
</svg>
