<svg width="20" height="20" viewBox="0 0 20 20" fill="none" xmlns="http://www.w3.org/2000/svg">
<path d="M10.0003 1.66699C8.90598 1.66699 7.82234 1.88254 6.8113 2.30133C5.80025 2.72012 4.88159 3.33395 4.10777 4.10777C2.54497 5.67057 1.66699 7.79019 1.66699 10.0003C1.66699 12.2105 2.54497 14.3301 4.10777 15.8929C4.88159 16.6667 5.80025 17.2805 6.8113 17.6993C7.82234 18.1181 8.90598 18.3337 10.0003 18.3337C12.2105 18.3337 14.3301 17.4557 15.8929 15.8929C17.4557 14.3301 18.3337 12.2105 18.3337 10.0003C18.3337 8.90598 18.1181 7.82234 17.6993 6.8113C17.2805 5.80025 16.6667 4.88159 15.8929 4.10777C15.1191 3.33395 14.2004 2.72012 13.1894 2.30133C12.1783 1.88254 11.0947 1.66699 10.0003 1.66699ZM13.5003 13.5003L9.16699 10.8337V5.83366H10.417V10.167L14.167 12.417L13.5003 13.5003Z" fill="black"/>
</svg>
