<svg width="59" height="59" viewBox="0 0 59 59" fill="none" xmlns="http://www.w3.org/2000/svg">
<path d="M31.959 24.583L46.5836 47.9765C46.6566 48.0943 46.6969 48.2294 46.7003 48.3679C46.7037 48.5064 46.6701 48.6433 46.603 48.7646C46.5359 48.8858 46.4377 48.9869 46.3185 49.0575C46.1992 49.1282 46.0634 49.1657 45.9248 49.1663H13.0766C12.9373 49.1657 12.8007 49.1277 12.6811 49.0563C12.5615 48.985 12.4632 48.8829 12.3965 48.7606C12.3297 48.6384 12.2969 48.5005 12.3015 48.3613C12.3061 48.2221 12.3479 48.0867 12.4226 47.9691L27.0423 24.583V7.37467H31.959V24.583ZM17.209 2.45801V7.37467H22.1257V23.2555L8.25822 45.3559C7.71752 46.2177 7.41737 47.2084 7.38894 48.2254C7.36051 49.2423 7.60484 50.2483 8.09655 51.1389C8.58826 52.0295 9.30942 52.7722 10.1851 53.2899C11.0609 53.8076 12.0592 54.0815 13.0766 54.083H45.9248C46.9421 54.0815 47.9405 53.8076 48.8162 53.2899C49.6919 52.7722 50.4131 52.0295 50.9048 51.1389C51.3965 50.2483 51.6408 49.2423 51.6124 48.2254C51.584 47.2084 51.2838 46.2177 50.7431 45.3559L36.8781 23.2555L36.8757 7.37467H41.7923V2.45801H17.209Z" fill="#63C471"/>
</svg>
