<svg width="59" height="59" viewBox="0 0 59 59" fill="none" xmlns="http://www.w3.org/2000/svg">
<path d="M27.6476 5.9734C32.4124 5.59777 37.1789 6.67774 41.3165 9.0704C45.4541 11.4631 48.7677 15.0556 50.8188 19.3728C52.8699 23.6899 53.5618 28.528 52.8031 33.247C52.0443 37.966 49.8706 42.3433 46.5695 45.7998C43.2685 49.2564 38.9957 51.6291 34.3166 52.6041C29.6376 53.5792 24.7727 53.1105 20.3658 51.2601C15.959 49.4097 12.2178 46.2649 9.63734 42.2417C7.05691 38.2186 5.75885 33.5067 5.91494 28.7297C5.93215 28.1429 6.18176 27.587 6.60885 27.1842C7.03595 26.7815 7.60554 26.5649 8.19234 26.5821C8.77913 26.5993 9.33505 26.8489 9.7378 27.276C10.1406 27.7031 10.3571 28.2727 10.3399 28.8595C10.1904 33.3814 11.6447 37.8106 14.4456 41.3637C17.2466 44.9169 21.2137 47.3652 25.6455 48.2758C30.0773 49.1863 34.6884 48.5004 38.6633 46.3394C42.6382 44.1783 45.721 40.6813 47.3664 36.4667C49.0119 32.2522 49.114 27.5915 47.6548 23.3089C46.1957 19.0262 43.2691 15.3975 39.3927 13.0644C35.5163 10.7312 30.9397 9.8439 26.4723 10.5594C22.0048 11.2748 17.9342 13.5469 14.9803 16.974L14.3785 17.7085H19.9156L20.2165 17.7292C20.7483 17.7996 21.2364 18.0609 21.5899 18.4644C21.9435 18.8679 22.1384 19.386 22.1384 19.9225C22.1384 20.4589 21.9435 20.9771 21.5899 21.3806C21.2364 21.784 20.7483 22.0453 20.2165 22.1158L19.9156 22.1335H9.59654L9.29564 22.1158C8.81686 22.05 8.3728 21.8292 8.03134 21.4872C7.68987 21.1452 7.46977 20.7008 7.40469 20.2219L7.38404 19.921V8.121L7.40469 7.82305C7.46977 7.34417 7.68987 6.89977 8.03134 6.55777C8.3728 6.21578 8.81686 5.99499 9.29564 5.92915L9.59654 5.91145L9.89744 5.92915C10.3762 5.99499 10.8203 6.21578 11.1617 6.55777C11.5032 6.89977 11.7233 7.34417 11.7884 7.82305L11.809 8.121L11.8061 13.8824C15.8556 9.28424 21.5388 6.44686 27.6476 5.9734ZM28.7627 17.7085L29.0636 17.7292C29.5424 17.795 29.9864 18.0158 30.3279 18.3578C30.6694 18.6998 30.8894 19.1442 30.9545 19.6231L30.9752 19.921V29.4997L36.1377 29.5026L36.4386 29.5233C36.9681 29.5961 37.4534 29.8582 37.8047 30.2612C38.156 30.6641 38.3495 31.1806 38.3495 31.7151C38.3495 32.2497 38.156 32.7661 37.8047 33.1691C37.4534 33.572 36.9681 33.8341 36.4386 33.907L36.1377 33.9276H28.7627L28.4618 33.907C27.9834 33.8413 27.5397 33.6209 27.1983 33.2795C26.8569 32.9381 26.6365 32.4944 26.5708 32.016L26.5502 31.7122V19.921L26.5708 19.6231C26.6359 19.1442 26.856 18.6998 27.1975 18.3578C27.539 18.0158 27.983 17.795 28.4618 17.7292L28.7627 17.7115V17.7085Z" fill="#63C471"/>
</svg>
