<svg width="59" height="59" viewBox="0 0 59 59" fill="none" xmlns="http://www.w3.org/2000/svg">
<path d="M31.814 53.9749C37.5116 53.4443 42.8434 50.935 46.8836 46.8826C56.4833 37.2828 56.4833 21.7166 46.8836 12.1168C37.2838 2.51704 21.7176 2.51704 12.1178 12.1168C2.51802 21.7166 2.51802 37.2828 12.1178 46.8826C14.5788 49.3489 17.537 51.2626 20.7954 52.4961C24.0539 53.7296 27.5378 54.2547 31.015 54.0363C31.2826 54.0751 31.5555 54.0541 31.814 53.9749ZM8.79415 26.6825C9.31983 22.7783 10.9439 19.1038 13.4773 16.087L26.8949 29.4997L24.2202 32.1744C21.634 30.0848 18.7529 28.9589 16.0069 28.2214C14.409 27.7936 12.8209 27.4839 11.368 27.2061L11.3287 27.1963C10.4265 27.0242 9.58327 26.8595 8.7966 26.6825H8.79415ZM8.62452 30.4191C9.27844 30.5568 9.93973 30.6846 10.5912 30.8125L10.6256 30.8174C12.108 31.105 13.5805 31.3902 15.0481 31.7835C17.3909 32.4128 19.6231 33.2978 21.5922 34.8023L13.4797 42.9148C10.5277 39.3989 8.8208 35.0058 8.62452 30.4191ZM24.2079 37.4008C25.8673 39.5199 26.7646 41.8405 27.3964 44.2178C27.7036 45.3732 27.9396 46.4991 28.1781 47.6398L28.3846 48.6108C28.5075 49.2008 28.6427 49.7933 28.7902 50.3833C24.1306 50.2314 19.6568 48.5199 16.0856 45.5231L24.2079 37.4008ZM32.549 50.1743C32.3474 49.4614 32.1704 48.6845 31.9885 47.8389L31.7992 46.9367C31.5583 45.7837 31.2953 44.5275 30.9609 43.2688C30.221 40.4958 29.0877 37.5237 26.8309 34.7778L29.5007 32.108L42.9158 45.5231C39.9593 48.0063 36.3695 49.6168 32.549 50.1743ZM32.1065 29.4997L35.086 26.5227C37.8246 28.8384 40.691 30.1118 43.3583 31.0116C44.4572 31.3853 45.5634 31.7048 46.5812 32.0023C46.9721 32.1154 47.3506 32.2235 47.712 32.3317C48.5724 32.5923 49.3616 32.843 50.0819 33.1208C49.4526 36.7302 47.8802 40.1091 45.5241 42.9148L32.1065 29.4997ZM48.7666 28.7991L47.5326 28.4377C46.5286 28.1533 45.5311 27.8468 44.5408 27.5183C42.2201 26.7316 39.8994 25.6991 37.7041 23.9045L45.5216 16.0846C48.6355 19.7939 50.3593 24.4724 50.3965 29.3153C49.8557 29.131 49.3075 28.9613 48.7666 28.7991ZM42.9158 13.4763L35.0959 21.2963C33.3013 19.101 32.2663 16.7803 31.4821 14.4596C31.1355 13.4394 30.8503 12.4585 30.5627 11.4654V11.4629C30.4398 11.0548 30.3242 10.6468 30.1989 10.2338C30.0366 9.69292 29.8694 9.14471 29.6851 8.60388C34.5277 8.6404 39.2062 10.3633 42.9158 13.4763ZM27.9864 15.6396C28.8886 18.3069 30.1595 21.1758 32.4777 23.9144L29.5007 26.8939L16.0856 13.4763C18.8914 11.1202 22.2702 9.54783 25.8796 8.91854C26.1574 9.63884 26.4081 10.4255 26.6662 11.2884L26.9981 12.4192C27.2931 13.437 27.6127 14.5408 27.9864 15.6396Z" fill="#63C471"/>
</svg>
