<svg width="24" height="24" viewBox="0 0 24 24" fill="none" xmlns="http://www.w3.org/2000/svg">
<path d="M20.498 14.9996H3.5V19.9996H20.498V14.9996ZM21.945 13.9716L21.966 14.0336L21.989 14.1336L21.999 14.2336V20.7496C21.9989 20.9312 21.933 21.1065 21.8135 21.2431C21.6939 21.3798 21.5289 21.4684 21.349 21.4926L21.249 21.4996H2.75C2.56876 21.4996 2.39366 21.434 2.25707 21.3149C2.12048 21.1957 2.03165 21.0312 2.007 20.8516L2 20.7496V14.2496L2.002 14.1976L2.012 14.1116C2.02215 14.0591 2.03791 14.0078 2.059 13.9586L4.819 7.93962C4.87106 7.82584 4.95076 7.72688 5.05084 7.65178C5.15092 7.57668 5.2682 7.52781 5.392 7.50962L5.5 7.50262L8.04 7.50162L7.25 8.87162L7.183 9.00162H5.98L3.918 13.4996H20.07L18.043 9.15362L18.905 7.65662C18.972 7.70662 19.03 7.76962 19.077 7.84062L19.13 7.93562L21.945 13.9716ZM13.365 1.55562L13.457 1.60062L18.645 4.60362C18.973 4.79362 19.103 5.19462 18.964 5.53662L18.919 5.62862L16.112 10.4996H17.25C17.4414 10.4977 17.6263 10.569 17.7668 10.6989C17.9073 10.8288 17.9928 11.0076 18.0059 11.1985C18.0189 11.3894 17.9585 11.5781 17.8369 11.726C17.7153 11.8738 17.5419 11.9695 17.352 11.9936L17.25 12.0006L15.248 11.9996V12.0026H11.169L11.166 11.9996H6.75C6.56116 11.9978 6.37995 11.9249 6.24254 11.7954C6.10513 11.6658 6.02166 11.4892 6.00877 11.3008C5.99589 11.1124 6.05456 10.9261 6.17306 10.779C6.29156 10.632 6.46116 10.5351 6.648 10.5076L6.75 10.5006L8.573 10.4996L8.391 10.3946C8.23454 10.3035 8.11624 10.1589 8.05782 9.98749C7.9994 9.81609 8.00479 9.62936 8.073 9.46162L8.117 9.36962L12.434 1.87362C12.624 1.54462 13.024 1.41362 13.365 1.55362V1.55562ZM13.355 3.27562L9.789 9.46962L11.567 10.4996H14.384L17.249 5.52662L13.357 3.27362L13.355 3.27562Z" fill="#888585"/>
</svg>
