<svg width="20" height="20" viewBox="0 0 20 20" fill="none" xmlns="http://www.w3.org/2000/svg">
<path d="M10.0003 1.60742C10.686 1.60736 11.3456 1.87028 11.8433 2.34202C12.3409 2.81377 12.6387 3.4584 12.6753 4.14314L12.6789 4.28599H16.6074C16.7432 4.28603 16.8738 4.3376 16.973 4.43026C17.0722 4.52292 17.1325 4.64978 17.1417 4.78519C17.151 4.92061 17.1085 5.05449 17.0228 5.15978C16.9372 5.26507 16.8147 5.33392 16.6803 5.35242L16.6074 5.35742H15.851L14.9796 16.1096C14.9252 16.7803 14.6203 17.4061 14.1256 17.8623C13.6309 18.3185 12.9825 18.5718 12.3096 18.5717H7.69099C7.01803 18.5718 6.3697 18.3185 5.87497 17.8623C5.38024 17.4061 5.07537 16.7803 5.02099 16.1096L4.14885 5.35742H3.39314C3.26368 5.35742 3.13861 5.31053 3.04104 5.22545C2.94348 5.14036 2.88003 5.02282 2.86242 4.89456L2.85742 4.82171C2.85743 4.69225 2.90431 4.56718 2.9894 4.46961C3.07449 4.37205 3.19203 4.3086 3.32028 4.29099L3.39314 4.28599H7.32171C7.32171 3.57559 7.60391 2.89429 8.10624 2.39196C8.60857 1.88963 9.28988 1.60742 10.0003 1.60742V1.60742ZM14.7767 5.35742H5.22385L6.08885 16.0231C6.12151 16.4256 6.30447 16.801 6.60133 17.0747C6.8982 17.3484 7.28721 17.5003 7.69099 17.5003H12.3096C12.7133 17.5003 13.1024 17.3484 13.3992 17.0747C13.6961 16.801 13.879 16.4256 13.9117 16.0231L14.776 5.35742H14.7767ZM8.39314 8.03599C8.52259 8.036 8.64767 8.08288 8.74523 8.16797C8.84279 8.25306 8.90624 8.3706 8.92385 8.49885L8.92885 8.57171V14.286C8.92881 14.4217 8.87725 14.5524 8.78458 14.6516C8.69192 14.7507 8.56507 14.811 8.42965 14.8203C8.29424 14.8295 8.16036 14.7871 8.05507 14.7014C7.94977 14.6157 7.88092 14.4933 7.86242 14.3589L7.85742 14.286V8.57171C7.85742 8.42963 7.91386 8.29337 8.01433 8.1929C8.1148 8.09243 8.25106 8.03599 8.39314 8.03599V8.03599ZM11.6074 8.03599C11.7369 8.036 11.862 8.08288 11.9595 8.16797C12.0571 8.25306 12.1205 8.3706 12.1381 8.49885L12.1431 8.57171V14.286C12.1431 14.4217 12.0915 14.5524 11.9989 14.6516C11.9062 14.7507 11.7794 14.811 11.6439 14.8203C11.5085 14.8295 11.3746 14.7871 11.2694 14.7014C11.1641 14.6157 11.0952 14.4933 11.0767 14.3589L11.0717 14.286V8.57171C11.0717 8.42963 11.1281 8.29337 11.2286 8.1929C11.3291 8.09243 11.4653 8.03599 11.6074 8.03599ZM10.0003 2.67885C9.59305 2.6788 9.20098 2.83335 8.90331 3.11126C8.60565 3.38917 8.42458 3.76972 8.39671 4.17599L8.39314 4.28599H11.6074L11.6039 4.17599C11.576 3.76972 11.3949 3.38917 11.0972 3.11126C10.7996 2.83335 10.4075 2.6788 10.0003 2.67885V2.67885Z" fill="#348A40"/>
</svg>
