<svg width="23" height="24" viewBox="0 0 23 24" fill="none" xmlns="http://www.w3.org/2000/svg">
<path d="M20.7663 11.7754C20.7663 17.2662 16.4392 21.6504 11.1829 21.6504C5.92671 21.6504 1.59961 17.2662 1.59961 11.7754C1.59961 6.28461 5.92671 1.90039 11.1829 1.90039C16.4392 1.90039 20.7663 6.28461 20.7663 11.7754Z" fill="#CD7F32" stroke="#F2F2F2" stroke-width="3"/>
<path d="M10.1138 10.5601H10.9771C11.2013 10.5601 11.3854 10.5093 11.5293 10.4077C11.6732 10.3019 11.779 10.1538 11.8467 9.96338C11.9144 9.77295 11.9482 9.55078 11.9482 9.29688C11.9482 9.0599 11.9165 8.85254 11.853 8.6748C11.7896 8.49707 11.6922 8.35742 11.561 8.25586C11.4299 8.1543 11.2648 8.10352 11.0659 8.10352C10.9136 8.10352 10.7718 8.14583 10.6406 8.23047C10.5094 8.3151 10.4036 8.43571 10.3232 8.59229C10.2471 8.74463 10.209 8.92871 10.209 9.14453H8.41895C8.41895 8.63672 8.53532 8.1945 8.76807 7.81787C9.00081 7.44124 9.31396 7.14714 9.70752 6.93555C10.1011 6.72396 10.5369 6.61816 11.0151 6.61816C11.5526 6.61816 12.0244 6.71973 12.4307 6.92285C12.8369 7.12174 13.1543 7.41797 13.3828 7.81152C13.6113 8.20085 13.7256 8.68327 13.7256 9.25879C13.7256 9.55501 13.6685 9.84066 13.5542 10.1157C13.4442 10.3908 13.2834 10.6383 13.0718 10.8584C12.8602 11.0742 12.6021 11.2456 12.2974 11.3726C11.9969 11.4995 11.6541 11.563 11.269 11.563H10.1138V10.5601ZM10.1138 12.001V11.0298H11.269C11.7007 11.0298 12.0773 11.0869 12.3989 11.2012C12.7248 11.3112 12.9935 11.472 13.2051 11.6836C13.4209 11.8952 13.5817 12.147 13.6875 12.439C13.7933 12.731 13.8462 13.0526 13.8462 13.4038C13.8462 13.8354 13.7743 14.2205 13.6304 14.5591C13.4865 14.8976 13.2855 15.1833 13.0273 15.416C12.7692 15.6488 12.4688 15.8265 12.126 15.9492C11.7832 16.0677 11.4108 16.127 11.0088 16.127C10.6745 16.127 10.3465 16.0741 10.0249 15.9683C9.70752 15.8625 9.42188 15.6995 9.16797 15.4795C8.91406 15.2594 8.71305 14.9823 8.56494 14.6479C8.41683 14.3136 8.34277 13.918 8.34277 13.4609H10.1201C10.1201 13.6895 10.1603 13.8947 10.2407 14.0767C10.3211 14.2544 10.4312 14.394 10.5708 14.4956C10.7147 14.5972 10.8755 14.6479 11.0532 14.6479C11.2606 14.6479 11.4404 14.5951 11.5928 14.4893C11.7451 14.3835 11.8615 14.2354 11.9419 14.0449C12.0223 13.8545 12.0625 13.6323 12.0625 13.3784C12.0625 13.0526 12.0202 12.7902 11.9355 12.5913C11.8509 12.3882 11.7282 12.2401 11.5674 12.147C11.4066 12.0496 11.2119 12.001 10.9834 12.001H10.1138Z" fill="#F2F2F2"/>
</svg>
