<svg width="23" height="23" viewBox="0 0 23 23" fill="none" xmlns="http://www.w3.org/2000/svg">
<path d="M22.5 11.5C22.5 17.5751 17.5751 22.5 11.5 22.5C5.42487 22.5 0.5 17.5751 0.5 11.5C0.5 5.42487 5.42487 0.5 11.5 0.5C17.5751 0.5 22.5 5.42487 22.5 11.5Z" stroke="#F2F2F2"/>
<path d="M11.0445 13.5944L8.71458 11.2645C9.13088 10.5316 9.73808 9.80557 10.5354 9.08874C11.5635 8.1626 13.3782 6.59707 15.9787 4.39214C16.2422 4.16865 16.5801 4.05244 16.9253 4.06658C17.2705 4.08073 17.5977 4.2242 17.842 4.4685C18.0863 4.7128 18.2298 5.04005 18.244 5.38524C18.2581 5.73044 18.1419 6.06833 17.9184 6.3318C15.7104 8.93694 14.1456 10.7516 13.2226 11.7751C12.5057 12.5702 11.7797 13.1766 11.0445 13.5944ZM7.65888 12.3785L9.93204 14.6509L8.88478 16.1122L4.83984 17.4883L6.19761 13.425L7.65888 12.3785Z" fill="#F5FAF5"/>
</svg>
