<svg width="28" height="29" viewBox="0 0 28 29" fill="none" xmlns="http://www.w3.org/2000/svg">
<path d="M25.7222 14.7998C25.7222 21.7435 20.2603 27.2998 13.6111 27.2998C6.96188 27.2998 1.5 21.7435 1.5 14.7998C1.5 7.85613 6.96188 2.2998 13.6111 2.2998C20.2603 2.2998 25.7222 7.85613 25.7222 14.7998Z" fill="#C0C0C0" stroke="#F2F2F2" stroke-width="3"/>
<path d="M16.52 17.2935V19H10.2358V17.5425L13.1216 13.873C13.3999 13.4873 13.6172 13.1504 13.7734 12.8623C13.9297 12.5693 14.042 12.3081 14.1104 12.0786C14.1787 11.8442 14.2129 11.6245 14.2129 11.4194C14.2129 11.1021 14.1763 10.8311 14.103 10.6064C14.0298 10.377 13.9199 10.2012 13.7734 10.0791C13.6318 9.95215 13.4561 9.88867 13.2461 9.88867C12.9922 9.88867 12.7822 9.9668 12.6162 10.123C12.4502 10.2793 12.3257 10.4941 12.2427 10.7676C12.1646 11.0361 12.1255 11.3413 12.1255 11.6831H10.0674C10.0674 11.0435 10.1968 10.4575 10.4556 9.92529C10.7192 9.39307 11.0879 8.9707 11.5615 8.6582C12.04 8.34082 12.6138 8.18213 13.2827 8.18213C13.937 8.18213 14.4839 8.3042 14.9233 8.54834C15.3677 8.79248 15.7021 9.1416 15.9268 9.5957C16.1562 10.0449 16.271 10.582 16.271 11.207C16.271 11.5635 16.2246 11.9102 16.1318 12.2471C16.0391 12.5791 15.9072 12.9111 15.7363 13.2432C15.5654 13.5703 15.3555 13.9048 15.1064 14.2466C14.8574 14.5884 14.5767 14.9424 14.2642 15.3086L12.8726 17.2935H16.52Z" fill="#F2F2F2"/>
</svg>
