<svg width="20" height="24" viewBox="0 0 20 24" fill="none" xmlns="http://www.w3.org/2000/svg">
<path d="M13 23.249H7V13.099C7 12.9067 7.06321 12.7223 7.17574 12.5864C7.28826 12.4504 7.44087 12.374 7.6 12.374H12.4C12.5591 12.374 12.7117 12.4504 12.8243 12.5864C12.9368 12.7223 13 12.9067 13 13.099V23.249V23.249Z" stroke="#888585" stroke-width="1.5" stroke-linecap="round" stroke-linejoin="round"/>
<path d="M18.4 23.2487H13V19.7445C13 19.5522 13.0632 19.3678 13.1757 19.2319C13.2883 19.0959 13.4409 19.0195 13.6 19.0195H18.4C18.5591 19.0195 18.7117 19.0959 18.8243 19.2319C18.9368 19.3678 19 19.5522 19 19.7445V22.5237C19 22.716 18.9368 22.9004 18.8243 23.0364C18.7117 23.1723 18.5591 23.2487 18.4 23.2487V23.2487Z" stroke="#888585" stroke-width="1.5" stroke-linecap="round" stroke-linejoin="round"/>
<path d="M7 23.2493V17.3285C7 17.1362 6.93679 16.9518 6.82426 16.8159C6.71174 16.6799 6.55913 16.6035 6.4 16.6035H1.6C1.44087 16.6035 1.28826 16.6799 1.17574 16.8159C1.06321 16.9518 1 17.1362 1 17.3285V22.5243C1 22.7166 1.06321 22.901 1.17574 23.037C1.28826 23.173 1.44087 23.2493 1.6 23.2493H7V23.2493Z" stroke="#888585" stroke-width="1.5" stroke-linecap="round" stroke-linejoin="round"/>
<path d="M8.80609 4.05205L9.71509 1.72359C9.73963 1.65703 9.77961 1.60048 9.83019 1.5608C9.88077 1.52112 9.93978 1.5 10.0001 1.5C10.0604 1.5 10.1194 1.52112 10.17 1.5608C10.2206 1.60048 10.2606 1.65703 10.2851 1.72359L11.1951 4.05205L13.2271 4.42784C13.4881 4.47617 13.5921 4.88217 13.4031 5.11417L11.9331 6.92667L12.2801 9.48592C12.3241 9.81459 12.0521 10.0659 11.8181 9.91005L10.0001 8.70172L8.18209 9.91005C7.94909 10.0647 7.67609 9.81459 7.72009 9.48592L8.06709 6.92667L6.59709 5.11417C6.40709 4.88217 6.51209 4.47617 6.77209 4.42784L8.80609 4.05326V4.05205Z" stroke="#888585" stroke-width="1.5" stroke-linecap="round" stroke-linejoin="round"/>
</svg>
