<svg width="59" height="59" viewBox="0 0 59 59" fill="none" xmlns="http://www.w3.org/2000/svg">
<path d="M44.25 31.9581H42.5783L37.6617 36.8747H42.3571L46.7083 41.7914H12.2917L16.6675 36.8747H21.7071L16.7904 31.9581H14.75L7.375 39.3331V49.1664C7.375 51.8706 9.56292 54.0831 12.2671 54.0831H46.7083C48.0123 54.0831 49.2629 53.565 50.1849 52.643C51.107 51.7209 51.625 50.4704 51.625 49.1664V39.3331L44.25 31.9581ZM46.7083 49.1664H12.2917V46.7081H46.7083V49.1664ZM27.8775 36.9239C28.8362 37.8826 30.385 37.8826 31.3437 36.9239L46.9788 21.2889C47.2066 21.0615 47.3875 20.7913 47.5108 20.4939C47.6342 20.1965 47.6977 19.8777 47.6977 19.5558C47.6977 19.2338 47.6342 18.915 47.5108 18.6176C47.3875 18.3202 47.2066 18.0501 46.9788 17.8226L34.81 5.65389C34.5882 5.42182 34.3221 5.23668 34.0273 5.10943C33.7326 4.98219 33.4154 4.91544 33.0944 4.91315C32.7734 4.91085 32.4552 4.97306 32.1587 5.09609C31.8622 5.21911 31.5934 5.40043 31.3683 5.6293L15.7087 21.2889C15.4809 21.5163 15.3 21.7865 15.1767 22.0839C15.0533 22.3812 14.9898 22.7 14.9898 23.022C14.9898 23.344 15.0533 23.6628 15.1767 23.9602C15.3 24.2576 15.4809 24.5277 15.7087 24.7551L27.8775 36.9239ZM33.0892 10.841L41.7917 19.5435L29.6229 31.7122L20.9204 23.0097L33.0892 10.841V10.841Z" fill="#63C471"/>
</svg>
