<svg width="20" height="20" viewBox="0 0 20 20" fill="none" xmlns="http://www.w3.org/2000/svg">
<path d="M5.83398 15.0003C4.91732 15.0003 4.17565 15.7503 4.17565 16.667C4.17565 17.5837 4.91732 18.3337 5.83398 18.3337C6.75065 18.3337 7.50065 17.5837 7.50065 16.667C7.50065 15.7503 6.75065 15.0003 5.83398 15.0003ZM14.1673 15.0003C13.2507 15.0003 12.509 15.7503 12.509 16.667C12.509 17.5837 13.2507 18.3337 14.1673 18.3337C15.084 18.3337 15.834 17.5837 15.834 16.667C15.834 15.7503 15.084 15.0003 14.1673 15.0003ZM6.75065 10.8337H12.959C13.584 10.8337 14.134 10.492 14.4173 9.97533L17.5007 4.13366L16.0423 3.33366L12.959 9.16699H7.10898L3.55898 1.66699H0.833984V3.33366H2.50065L5.50065 9.65866L4.37565 11.692C3.76732 12.8087 4.56732 14.167 5.83398 14.167H15.834V12.5003H5.83398L6.75065 10.8337ZM10.0007 1.66699L13.334 5.00033L10.0007 8.33366L8.82565 7.15866L10.1423 5.83366H6.66732V4.16699H10.1423L8.81732 2.84199L10.0007 1.66699Z" fill="#348A40"/>
</svg>
