<svg width="59" height="59" viewBox="0 0 59 59" fill="none" xmlns="http://www.w3.org/2000/svg">
<path d="M11.0625 28.2708H47.9375V41.7917C47.9375 42.4437 47.6785 43.0689 47.2175 43.53C46.7564 43.991 46.1312 44.25 45.4792 44.25H13.5208C12.8688 44.25 12.2436 43.991 11.7825 43.53C11.3215 43.0689 11.0625 42.4437 11.0625 41.7917V28.2708ZM11.0625 9.83333C11.0625 9.18134 11.3215 8.55606 11.7825 8.09503C12.2436 7.634 12.8688 7.375 13.5208 7.375H45.4792C46.1312 7.375 46.7564 7.634 47.2175 8.09503C47.6785 8.55606 47.9375 9.18134 47.9375 9.83333V28.2708H11.0625V9.83333Z" stroke="#63C471" stroke-width="4.91667" stroke-linejoin="round"/>
<path d="M18.4375 51.625C17.4595 51.625 16.5216 51.2365 15.83 50.545C15.1385 49.8534 14.75 48.9155 14.75 47.9375V44.25H22.125V47.9375C22.125 48.9155 21.7365 49.8534 21.045 50.545C20.3534 51.2365 19.4155 51.625 18.4375 51.625V51.625ZM40.5625 51.625C39.5845 51.625 38.6466 51.2365 37.955 50.545C37.2635 49.8534 36.875 48.9155 36.875 47.9375V44.25H44.25V47.9375C44.25 48.9155 43.8615 49.8534 43.17 50.545C42.4784 51.2365 41.5405 51.625 40.5625 51.625Z" stroke="#63C471" stroke-width="4.91667" stroke-linecap="round" stroke-linejoin="round"/>
<path d="M51.625 14.75V19.6667M7.375 14.75V19.6667V14.75Z" stroke="#63C471" stroke-width="4.91667" stroke-linecap="round"/>
<path d="M18.4368 39.3337C19.7945 39.3337 20.8952 38.233 20.8952 36.8753C20.8952 35.5176 19.7945 34.417 18.4368 34.417C17.0791 34.417 15.9785 35.5176 15.9785 36.8753C15.9785 38.233 17.0791 39.3337 18.4368 39.3337Z" fill="#63C471"/>
<path d="M40.5618 39.3337C41.9195 39.3337 43.0202 38.233 43.0202 36.8753C43.0202 35.5176 41.9195 34.417 40.5618 34.417C39.2041 34.417 38.1035 35.5176 38.1035 36.8753C38.1035 38.233 39.2041 39.3337 40.5618 39.3337Z" fill="#63C471"/>
<path d="M46.7077 8.60417L40.5618 15.9792M38.1035 7.375L27.041 19.6667L38.1035 7.375Z" stroke="#63C471" stroke-width="4.91667" stroke-linecap="round"/>
</svg>
