<svg width="24" height="30" viewBox="0 0 24 30" fill="none" xmlns="http://www.w3.org/2000/svg">
<path d="M21.9142 17.164C21.0517 13.2649 19.7725 10.7777 17.7222 10.1716C17.3251 10.0558 16.9134 9.998 16.4997 10.0001C15.2392 10.0001 14.2446 10.7501 11.9997 10.7501C9.75488 10.7501 8.75831 10.0001 7.49972 10.0001C7.06882 9.99783 6.6397 10.0556 6.22472 10.1716C4.17159 10.7777 2.90316 13.2672 2.03081 17.164C1.14019 21.1441 1.30144 24.289 3.04237 24.8927C4.26112 25.3146 5.35097 24.4423 6.38316 23.1583C7.55503 21.6958 8.99831 21.2458 11.9997 21.2458C15.0011 21.2458 16.3882 21.6958 17.5619 23.1583C18.5932 24.4432 19.7233 25.3048 20.9097 24.9002C22.8325 24.2435 22.8053 21.191 21.9142 17.164Z" stroke="#888585" stroke-width="1.5" stroke-miterlimit="10"/>
<path d="M13.6875 17.4375C14.2053 17.4375 14.625 17.0178 14.625 16.5C14.625 15.9822 14.2053 15.5625 13.6875 15.5625C13.1697 15.5625 12.75 15.9822 12.75 16.5C12.75 17.0178 13.1697 17.4375 13.6875 17.4375Z" fill="#888585"/>
<path d="M15.75 19.5C15.5645 19.5 15.3831 19.445 15.2289 19.3418C15.0747 19.2387 14.9545 19.0922 14.8836 18.9207C14.8128 18.7493 14.7943 18.5607 14.8307 18.3787C14.8671 18.1968 14.9566 18.0298 15.0879 17.8988C15.2193 17.7677 15.3865 17.6786 15.5685 17.6427C15.7506 17.6068 15.9391 17.6257 16.1104 17.697C16.2817 17.7684 16.4279 17.8889 16.5306 18.0434C16.6334 18.1978 16.688 18.3793 16.6875 18.5648C16.6869 18.8131 16.5878 19.0509 16.4121 19.2262C16.2363 19.4016 15.9982 19.5 15.75 19.5Z" fill="#888585"/>
<path d="M15.75 15.375C16.2678 15.375 16.6875 14.9553 16.6875 14.4375C16.6875 13.9197 16.2678 13.5 15.75 13.5C15.2322 13.5 14.8125 13.9197 14.8125 14.4375C14.8125 14.9553 15.2322 15.375 15.75 15.375Z" fill="#888585"/>
<path d="M17.8125 17.4375C18.3303 17.4375 18.75 17.0178 18.75 16.5C18.75 15.9822 18.3303 15.5625 17.8125 15.5625C17.2947 15.5625 16.875 15.9822 16.875 16.5C16.875 17.0178 17.2947 17.4375 17.8125 17.4375Z" fill="#888585"/>
<path d="M7.5 14.25V18.75" stroke="#888585" stroke-width="1.5" stroke-linecap="round" stroke-linejoin="round"/>
<path d="M9.75 16.5H5.25" stroke="#888585" stroke-width="1.5" stroke-linecap="round" stroke-linejoin="round"/>
</svg>
