<svg width="59" height="59" viewBox="0 0 59 59" fill="none" xmlns="http://www.w3.org/2000/svg">
<path d="M19.6667 29.5003C26.4554 29.5003 31.9583 23.9973 31.9583 17.2087C31.9583 10.42 26.4554 4.91699 19.6667 4.91699C12.878 4.91699 7.375 10.42 7.375 17.2087C7.375 23.9973 12.878 29.5003 19.6667 29.5003Z" stroke="#63C471" stroke-width="4.91667" stroke-linejoin="round"/>
<path d="M31.9584 18.6865C31.9756 18.7037 37.7637 25.9829 49.3216 40.5214C49.5174 40.7571 49.6181 41.0574 49.604 41.3634C49.5899 41.6695 49.462 41.9592 49.2454 42.1759L44.2255 47.1958C44.0088 47.4124 43.719 47.5403 43.413 47.5544C43.1069 47.5685 42.8067 47.4678 42.571 47.272L21.9062 29.5007" stroke="#63C471" stroke-width="4.91667" stroke-linecap="round" stroke-linejoin="round"/>
<path d="M32.5352 30.0781L36.0112 33.5554" stroke="#63C471" stroke-width="4.91667" stroke-linecap="round" stroke-linejoin="round"/>
<path d="M20.8965 54.1895C23.2528 51.119 26.1168 49.5838 29.4884 49.5838C34.5476 49.5838 40.5177 55.9386 45.6101 55.0646C50.7038 54.1895 52.1616 49.1671 49.0272 46.3867" stroke="#63C471" stroke-width="4.91667" stroke-linecap="round" stroke-linejoin="round"/>
</svg>
