<svg width="24" height="24" viewBox="0 0 24 24" fill="none" xmlns="http://www.w3.org/2000/svg">
<path d="M7.5 1.99973C5.71 3.14973 4.5 5.17973 4.5 7.49973C4.5 9.81973 5.71 11.8497 7.53 12.9997C4.46 12.9997 2 10.5397 2 7.49973C2 6.04104 2.57946 4.64209 3.61091 3.61064C4.64236 2.57919 6.04131 1.99973 7.5 1.99973ZM19.07 3.49973L20.5 4.92973L4.93 20.4997L3.5 19.0697L19.07 3.49973ZM12.89 5.92973L11.41 4.99973L9.97 5.99973L10.39 4.29973L9 3.23973L10.75 3.11973L11.33 1.46973L12 3.09973L13.73 3.12973L12.38 4.25973L12.89 5.92973ZM9.59 9.53973L8.43 8.80973L7.31 9.58973L7.65 8.26973L6.56 7.43973L7.92 7.34973L8.37 6.05973L8.88 7.32973L10.24 7.35973L9.19 8.22973L9.59 9.53973ZM19 13.4997C19 14.9584 18.4205 16.3574 17.3891 17.3888C16.3576 18.4203 14.9587 18.9997 13.5 18.9997C12.28 18.9997 11.15 18.5997 10.24 17.9297L17.93 10.2397C18.6 11.1497 19 12.2797 19 13.4997ZM14.6 20.0797L17.37 18.9297L17.13 22.2797L14.6 20.0797ZM18.93 17.3797L20.08 14.6097L22.28 17.1497L18.93 17.3797ZM20.08 12.4197L18.94 9.63973L22.28 9.87973L20.08 12.4197ZM9.63 18.9297L12.4 20.0797L9.87 22.2697L9.63 18.9297Z" fill="#888585"/>
</svg>
