<svg width="386" height="369" viewBox="0 0 386 369" fill="none" xmlns="http://www.w3.org/2000/svg">
<g clip-path="url(#clip0_941_679)">
<path d="M245.048 82.9873H141.038C138.668 82.9901 136.396 83.9135 134.72 85.5548C133.044 87.1962 132.101 89.4215 132.098 91.7428V318.131L130.906 318.487L105.391 326.139C104.181 326.5 102.875 326.377 101.759 325.796C100.643 325.215 99.8075 324.223 99.4367 323.04L23.5401 80.2497C23.1707 79.0654 23.2966 77.786 23.8901 76.6926C24.4835 75.5992 25.496 74.7812 26.705 74.4186L66.0241 62.6278L180.012 28.458L219.331 16.6672C219.929 16.4869 220.558 16.4239 221.181 16.4818C221.804 16.5397 222.41 16.7174 222.963 17.0048C223.516 17.2921 224.006 17.6834 224.404 18.1564C224.803 18.6293 225.102 19.1745 225.285 19.7609L244.685 81.8199L245.048 82.9873Z" fill="#F2F2F2"/>
<path d="M267.745 81.8196L244.364 7.02428C243.975 5.77805 243.339 4.6191 242.492 3.61367C241.646 2.60823 240.605 1.77601 239.43 1.16456C238.255 0.553107 236.968 0.174405 235.644 0.0501068C234.319 -0.0741914 232.983 0.0583497 231.71 0.440143L176.43 17.0114L62.4486 51.1871L7.16837 67.7641C4.60034 68.5364 2.45009 70.275 1.18961 72.5983C-0.0708794 74.9215 -0.338624 77.6397 0.445153 80.1561L80.3587 335.776C80.9954 337.807 82.2801 339.585 84.0243 340.849C85.7685 342.113 87.8804 342.796 90.0501 342.798C91.0542 342.798 92.0527 342.651 93.0121 342.36L130.907 331.001L132.099 330.639V329.419L130.907 329.775L92.6605 341.245C90.3938 341.922 87.9455 341.691 85.8527 340.602C83.7599 339.513 82.1936 337.656 81.4972 335.437L1.58974 79.8117C1.24471 78.7126 1.12445 77.5575 1.23586 76.4128C1.34727 75.2681 1.68815 74.1561 2.239 73.1406C2.78984 72.125 3.53984 71.2259 4.44602 70.4946C5.3522 69.7634 6.39676 69.2143 7.5199 68.879L62.8002 52.3019L176.782 18.1321L232.062 1.55502C232.914 1.30041 233.8 1.17059 234.69 1.16978C236.602 1.17398 238.462 1.7775 239.998 2.89194C241.534 4.00638 242.665 5.57318 243.226 7.36284L266.5 81.8197L266.869 82.9871H268.109L267.745 81.8196Z" fill="#3F3D56"/>
<path d="M73.1187 74.6092C71.9699 74.6084 70.8517 74.2471 69.928 73.5783C69.0043 72.9094 68.3238 71.9683 67.9862 70.893L60.3094 46.3357C60.1031 45.676 60.0315 44.983 60.0987 44.2963C60.1659 43.6095 60.3706 42.9425 60.7011 42.3332C61.0316 41.724 61.4814 41.1844 62.0248 40.7454C62.5682 40.3064 63.1946 39.9766 63.8683 39.7747L168.73 8.33443C170.091 7.9279 171.56 8.06655 172.816 8.71994C174.072 9.37333 175.012 10.4881 175.43 11.8195L183.107 36.3771C183.522 37.7093 183.38 39.1483 182.713 40.3784C182.046 41.6084 180.908 42.529 179.548 42.9383L74.6859 74.3786C74.1781 74.5313 73.6499 74.609 73.1187 74.6092V74.6092Z" fill="#348A40"/>
<path d="M113.334 26.2396C119.918 26.2396 125.255 21.013 125.255 14.5656C125.255 8.11823 119.918 2.8916 113.334 2.8916C106.751 2.8916 101.414 8.11823 101.414 14.5656C101.414 21.013 106.751 26.2396 113.334 26.2396Z" fill="#348A40"/>
<path d="M113.333 21.9585C117.502 21.9585 120.882 18.6488 120.882 14.5662C120.882 10.4835 117.502 7.17383 113.333 7.17383C109.165 7.17383 105.785 10.4835 105.785 14.5662C105.785 18.6488 109.165 21.9585 113.333 21.9585Z" fill="white"/>
<path d="M359.179 339.815H157.726C156.383 339.813 155.095 339.29 154.146 338.36C153.196 337.43 152.662 336.169 152.66 334.853V98.4546C152.662 97.1392 153.196 95.8781 154.146 94.948C155.095 94.0178 156.383 93.4946 157.726 93.4932H359.179C360.522 93.4947 361.81 94.0179 362.759 94.948C363.709 95.8781 364.243 97.1392 364.245 98.4546V334.853C364.243 336.169 363.709 337.43 362.759 338.36C361.81 339.29 360.522 339.813 359.179 339.815V339.815Z" fill="#E6E6E6"/>
<path d="M266.499 81.8193H141.038C138.352 81.8231 135.777 82.8697 133.878 84.7298C131.979 86.5899 130.91 89.1117 130.906 91.7422V329.775L132.098 329.419V91.7422C132.101 89.421 133.044 87.1956 134.72 85.5543C136.396 83.9129 138.668 82.9896 141.038 82.9867H266.869L266.499 81.8193ZM375.868 81.8193H141.038C138.352 81.8231 135.777 82.8697 133.878 84.7298C131.979 86.5899 130.91 89.1117 130.906 91.7422V359.077C130.91 361.708 131.979 364.229 133.878 366.089C135.777 367.95 138.352 368.996 141.038 369H375.868C378.554 368.996 381.129 367.95 383.028 366.089C384.928 364.229 385.996 361.708 386 359.077V91.7422C385.996 89.1117 384.928 86.5899 383.028 84.7298C381.129 82.8697 378.554 81.8231 375.868 81.8193V81.8193ZM384.808 359.077C384.805 361.398 383.862 363.624 382.186 365.265C380.51 366.906 378.238 367.83 375.868 367.832H141.038C138.668 367.83 136.396 366.906 134.72 365.265C133.044 363.624 132.101 361.398 132.098 359.077V91.7422C132.101 89.421 133.044 87.1956 134.72 85.5543C136.396 83.9129 138.668 82.9896 141.038 82.9867H375.868C378.238 82.9896 380.51 83.9129 382.186 85.5543C383.862 87.1956 384.805 89.421 384.808 91.7422V359.077Z" fill="#3F3D56"/>
<path d="M313.286 107.502H203.62C202.198 107.5 200.834 106.946 199.829 105.962C198.823 104.977 198.257 103.641 198.256 102.249V76.5658C198.257 75.173 198.823 73.8377 199.829 72.8529C200.834 71.868 202.198 71.3141 203.62 71.3125H313.286C314.709 71.3141 316.072 71.868 317.078 72.8529C318.083 73.8377 318.649 75.173 318.651 76.5658V102.249C318.649 103.641 318.083 104.977 317.078 105.962C316.072 106.946 314.709 107.5 313.286 107.502V107.502Z" fill="#348A40"/>
<path d="M258.453 73.0638C265.037 73.0638 270.374 67.8372 270.374 61.3898C270.374 54.9425 265.037 49.7158 258.453 49.7158C251.87 49.7158 246.533 54.9425 246.533 61.3898C246.533 67.8372 251.87 73.0638 258.453 73.0638Z" fill="#348A40"/>
<path d="M258.454 68.5004C262.464 68.5004 265.714 65.3169 265.714 61.3899C265.714 57.4628 262.464 54.2793 258.454 54.2793C254.444 54.2793 251.193 57.4628 251.193 61.3899C251.193 65.3169 254.444 68.5004 258.454 68.5004Z" fill="white"/>
</g>
<defs>
<clipPath id="clip0_941_679">
<rect width="386" height="369" fill="white"/>
</clipPath>
</defs>
</svg>
