<svg width="20" height="24" viewBox="0 0 20 24" fill="none" xmlns="http://www.w3.org/2000/svg">
<path d="M17.7778 3.21673H16.6667V0.983398H14.4444V3.21673H5.55556V0.983398H3.33333V3.21673H2.22222C1 3.21673 0 4.22173 0 5.45007V21.0834C0 22.3117 1 23.3167 2.22222 23.3167H17.7778C19 23.3167 20 22.3117 20 21.0834V5.45007C20 4.22173 19 3.21673 17.7778 3.21673ZM17.7778 21.0834H2.22222V9.91673H17.7778V21.0834ZM2.22222 7.6834V5.45007H17.7778V7.6834H2.22222ZM4.44444 12.1501H15.5556V14.3834H4.44444V12.1501ZM4.44444 16.6167H12.2222V18.8501H4.44444V16.6167Z" fill="#348A40"/>
</svg>
